<?xml version="1.0" encoding="UTF-8"?>
<svg id="Layer_1" data-name="Layer 1" xmlns="http://www.w3.org/2000/svg" viewBox="0 0 1072.5 245.78">
  <defs>
    <style>
      .cls-1 {
        fill: #2f2f2f;
      }

      .cls-1, .cls-2 {
        stroke-width: 0px;
      }

      .cls-3 {
        fill: none;
        stroke: #f63030;
        stroke-miterlimit: 10;
        stroke-width: 35px;
      }

      .cls-2 {
        fill: #840010;
      }
    </style>
  </defs>
  <path class="cls-2" d="m23.78,0C10.63,0,0,10.64,0,23.77v219.53c0,.84.05,1.68.13,2.49,8.83-3.3,18.22-6.89,28.11-10.85,68.95-27.52,125.31-50.91,125.36-77.33,0-.85-.05-1.7-.17-2.56-3.56-26.08-65.9-34.16-65.81-46.12,0-.64.18-1.3.56-1.97,7.49-13.11,37.15-12.48,48.07-13.41,10.94-.95,36.59-.75,37.83-8.57.04-.24.06-.48.06-.72.03-7.26-17.64-10.11-17.64-10.11,0,0,21.44,3.2,21.39,11.55,0,.41-.05.83-.16,1.26-2.31,8.97-21.18,10.65-33.66,11.26-11.8.59-29.77,1.93-29.84,7.7,0,.34.05.68.17,1.04,2.82,8.43,68.68,12.49,110.83,34.36,24.25,12.58,36.31,33.69,41.85,55.52V23.77c0-13.12-10.64-23.77-23.77-23.77H23.78Z"/>
  <polygon class="cls-1" points="375.15 79.99 330.83 79.99 330.83 71.61 428.6 71.61 428.6 79.99 384.28 79.99 384.28 206.59 375.15 206.59 375.15 79.99"/>
  <path class="cls-1" d="m426.22,180.32v-69.5h8.76v68.41c0,14.59,6.39,21.71,20.98,21.71,13.31,0,24.44-6.93,36.3-18.24v-71.87h8.76v95.77h-8.76v-15.87c-10.58,10.03-22.98,17.88-37.03,17.88-19.88,0-29.01-10.94-29.01-28.28Z"/>
  <path class="cls-1" d="m539.5,185.24v-66.58h-16.79v-7.85h16.79v-34.84h8.75v34.84h25v7.85h-25v65.3c0,10.22,3.47,16.06,15.51,16.06,3.65,0,7.29-.36,10.03-1.28v8.2c-3.11.55-6.75.91-10.76.91-15.87,0-23.53-6.38-23.53-22.62Z"/>
  <path class="cls-1" d="m658.24,183.79v-33.02c-46.69,8.21-57.09,19.7-57.09,33.2,0,10.76,7.12,16.6,18.97,16.6,14.23,0,27.17-6.21,38.12-16.79Zm-65.85.73c0-18.23,15.51-31.92,65.85-40.32v-5.83c0-14.59-7.65-21.89-20.8-21.89-15.87,0-26.45,6.2-37.21,15.87l-5.11-5.47c11.86-10.94,24.08-18.06,42.5-18.06,19.88,0,29.37,11.31,29.37,29.01v45.05c0,11.67.73,18.79,2.73,23.71h-9.3c-1.28-4.01-2.19-8.76-2.19-14.23-11.67,10.03-24.44,15.87-38.85,15.87-17.51,0-27-9.12-27-23.72Z"/>
  <path class="cls-1" d="m696.92,206.6v-96.32h15.87v14.42c8.39-8.21,20.44-16.42,36.12-16.42,18.43,0,28.46,10.58,28.46,28.82v69.49h-15.69v-66.03c0-12.77-5.47-18.78-17.7-18.78-11.49,0-21.16,6.01-31.19,15.5v69.32h-15.87Z"/>
  <path class="cls-1" d="m874.03,158.43c0-20.07-9.67-36.67-28.81-36.67s-29.01,14.96-29.01,36.67c0,20.43,9.49,36.84,29.01,36.84,18.23,0,28.81-14.77,28.81-36.84Zm-73.69,0c0-33.2,21.16-50.17,44.88-50.17s44.69,16.97,44.69,50.17-21.16,50.16-44.69,50.16-44.88-17.14-44.88-50.16Z"/>
  <path class="cls-1" d="m920.73,183.24v-60.01h-16.78v-12.96h16.78v-34.29h15.69v34.29h24.99v12.96h-24.99v56.54c0,10.22,3.28,15.32,14.95,15.32,3.46,0,7.3-.55,9.85-1.28v12.95c-2.73.55-8.76,1.1-13.68,1.1-20.25,0-26.82-7.85-26.82-24.63Z"/>
  <path class="cls-1" d="m1042.76,181.6v-26.99c-36.66,5.83-48.88,14.77-48.88,26.81,0,9.3,6.2,14.23,16.23,14.23,12.78,0,23.72-5.29,32.65-14.05Zm-64.38,2.19c0-19.52,16.59-33.38,64.38-40.13v-4.37c0-12.04-6.38-17.88-18.23-17.88-14.6,0-25.36,6.39-34.84,14.6l-8.21-9.85c11.13-10.22,25.53-17.88,44.69-17.88,22.98,0,32.1,12.04,32.1,32.1v42.5c0,11.67.73,18.79,2.73,23.71h-16.05c-1.28-4.01-2.19-7.85-2.19-13.31-10.76,10.03-22.81,14.77-37.22,14.77-16.6,0-27.17-8.75-27.17-24.26Z"/>
  <line class="cls-3" x1="683.5" y1="156.89" x2="1072.5" y2="156.89"/>
</svg>